<svg width="159" height="33" viewBox="0 0 159 33" fill="none" xmlns="http://www.w3.org/2000/svg">
<path d="M152.323 21.0574C152.106 21.0574 151.921 21.014 151.769 20.9272C151.617 20.8403 151.541 20.6775 151.541 20.4388C151.541 20.1349 151.617 19.7876 151.769 19.3968C151.921 19.0061 152.095 18.6262 152.29 18.2572C152.486 17.8665 152.659 17.5517 152.811 17.3129C152.051 18.1161 151.259 18.8759 150.434 19.5922C150.022 19.9395 149.566 20.2651 149.067 20.569C148.567 20.8729 148.036 21.0249 147.471 21.0249C147.254 21.0249 147.102 20.9597 147.015 20.8295C146.929 20.6775 146.885 20.5039 146.885 20.3085C146.885 20.2 146.896 20.124 146.918 20.0806C147.026 19.234 147.298 18.3549 147.732 17.4432C148.166 16.5315 148.698 15.674 149.327 14.8709C149.957 14.0677 150.597 13.4165 151.248 12.9172C151.986 12.3528 152.8 12.0707 153.69 12.0707H157.435C157.543 12.0707 157.598 12.1141 157.598 12.2009C157.598 12.3746 157.5 12.4614 157.305 12.4614C157.087 12.4614 156.87 12.6025 156.653 12.8847C156.436 13.1452 156.273 13.3622 156.165 13.5359C156.013 13.7747 155.774 14.1763 155.449 14.7406C155.123 15.305 154.787 15.9237 154.439 16.5966C154.114 17.2478 153.831 17.8556 153.593 18.42C153.354 18.9844 153.234 19.3968 153.234 19.6573C153.234 19.9612 153.386 20.1132 153.69 20.1132C154.016 20.1132 154.385 19.9612 154.797 19.6573C155.21 19.3534 155.622 18.9844 156.035 18.5502C156.469 18.0944 156.86 17.6494 157.207 17.2153C157.576 16.7594 157.869 16.4012 158.086 16.1407C158.216 16.271 158.205 16.4555 158.053 16.6943C157.923 16.9114 157.804 17.085 157.695 17.2153C157.261 17.7796 156.762 18.3657 156.197 18.9735C155.633 19.5596 155.014 20.0589 154.342 20.4713C153.69 20.8621 153.017 21.0574 152.323 21.0574ZM148.806 19.9178C149.067 19.9178 149.425 19.7333 149.881 19.3643C150.358 18.9735 150.868 18.496 151.411 17.9316C151.954 17.3455 152.464 16.7377 152.941 16.1082C153.419 15.457 153.81 14.8709 154.114 14.3499C154.439 13.8072 154.602 13.3948 154.602 13.1126C154.602 12.8738 154.526 12.711 154.374 12.6242C154.244 12.5374 154.07 12.4939 153.853 12.4939C153.506 12.4939 153.126 12.6242 152.713 12.8847C152.323 13.1235 152.008 13.3622 151.769 13.601C151.509 13.8398 151.194 14.2197 150.825 14.7406C150.478 15.2399 150.13 15.7934 149.783 16.4012C149.436 17.009 149.143 17.5951 148.904 18.1595C148.665 18.7239 148.546 19.1798 148.546 19.5271C148.546 19.7876 148.633 19.9178 148.806 19.9178Z" fill="black" stroke="black"/>
<path d="M148.403 8.52153C148.099 8.52153 147.882 8.42385 147.752 8.22849C147.665 8.11995 147.622 7.97885 147.622 7.8052C147.622 7.45788 147.784 7.17569 148.11 6.95862C148.349 6.82837 148.566 6.76325 148.761 6.76325C149.087 6.76325 149.315 6.86094 149.445 7.0563C149.532 7.16484 149.575 7.30593 149.575 7.47959C149.575 7.8269 149.402 8.1091 149.054 8.32617C148.859 8.45641 148.642 8.52153 148.403 8.52153ZM142.737 21.0574C142.52 21.0574 142.336 21.014 142.184 20.9272C142.054 20.8403 141.989 20.6775 141.989 20.4388C141.989 20.1349 142.065 19.7767 142.216 19.3643C142.39 18.9518 142.575 18.5394 142.77 18.127C142.987 17.7145 143.15 17.3781 143.258 17.1176C143.41 16.8137 143.595 16.4229 143.812 15.9454C144.051 15.4461 144.268 14.9794 144.463 14.5453C144.68 14.0894 144.832 13.7747 144.919 13.601C144.615 13.9266 144.246 14.3391 143.812 14.8383C143.4 15.3159 143.009 15.7826 142.64 16.2384C142.271 16.6943 141.989 17.0524 141.793 17.3129C141.728 17.3998 141.674 17.4432 141.63 17.4432C141.587 17.4432 141.565 17.3889 141.565 17.2804C141.565 17.1067 141.62 16.9439 141.728 16.792C142.14 16.271 142.596 15.6849 143.096 15.0337C143.617 14.3825 144.083 13.7855 144.496 13.2428C144.908 12.6785 145.169 12.3094 145.277 12.1358C145.516 12.0924 145.863 12.0272 146.319 11.9404C146.797 11.8536 147.122 11.7342 147.296 11.5822C147.361 11.5171 147.426 11.4846 147.491 11.4846C147.535 11.4846 147.556 11.528 147.556 11.6148C147.578 11.6799 147.556 11.7559 147.491 11.8427C147.361 11.9947 147.133 12.3637 146.808 12.9498C146.482 13.5359 146.135 14.1871 145.766 14.9034C145.418 15.5981 145.093 16.2276 144.789 16.792C144.485 17.3781 144.224 17.9424 144.007 18.4851C143.79 19.0278 143.682 19.4185 143.682 19.6573C143.682 19.9612 143.834 20.1132 144.138 20.1132C144.42 20.1132 144.778 19.9395 145.212 19.5922C145.668 19.2449 146.124 18.8324 146.58 18.3549C147.035 17.8556 147.437 17.3998 147.784 16.9873C147.893 16.8571 148.023 16.7051 148.175 16.5315C148.349 16.3361 148.457 16.2167 148.501 16.1733C148.544 16.2167 148.566 16.2927 148.566 16.4012C148.544 16.5532 148.49 16.7051 148.403 16.8571C148.316 16.9873 148.229 17.1067 148.143 17.2153C147.687 17.7796 147.187 18.3657 146.645 18.9735C146.102 19.5596 145.505 20.0589 144.854 20.4713C144.203 20.8621 143.497 21.0574 142.737 21.0574Z" fill="black" stroke="black"/>
<path d="M132.954 21.4156C132.867 21.4156 132.867 21.3288 132.954 21.1551C133.063 20.9597 133.16 20.7427 133.247 20.5039C133.356 20.2651 133.464 20.0046 133.573 19.7224C133.79 19.2015 134.029 18.6154 134.289 17.9642C134.55 17.3129 134.799 16.6834 135.038 16.0756C135.277 15.4461 135.483 14.9143 135.657 14.4802C135.852 14.0243 135.982 13.7313 136.047 13.601C135.744 13.9266 135.375 14.3391 134.94 14.8383C134.528 15.3159 134.137 15.7826 133.768 16.2384C133.399 16.6943 133.117 17.0525 132.922 17.3129C132.857 17.3998 132.802 17.4432 132.759 17.4432C132.715 17.4432 132.694 17.3889 132.694 17.2804C132.694 17.1067 132.748 16.9439 132.857 16.792C133.269 16.271 133.725 15.6849 134.224 15.0337C134.745 14.3825 135.212 13.7855 135.624 13.2429C136.037 12.6785 136.297 12.3094 136.406 12.1358C136.644 12.0924 136.992 12.0273 137.448 11.9404C137.925 11.8536 138.251 11.7342 138.424 11.5823C138.49 11.5171 138.555 11.4846 138.62 11.4846C138.663 11.4846 138.685 11.528 138.685 11.6148C138.707 11.6799 138.685 11.7559 138.62 11.8427C138.49 11.973 138.294 12.2552 138.034 12.6893C137.795 13.1235 137.524 13.6227 137.22 14.1871C136.916 14.7515 136.623 15.2942 136.341 15.8152C136.558 15.4895 136.84 15.1097 137.187 14.6755C137.556 14.2197 137.958 13.7855 138.392 13.3731C138.826 12.939 139.26 12.5808 139.694 12.2986C140.15 12.0164 140.573 11.8753 140.964 11.8753C141.246 11.8753 141.485 11.9404 141.68 12.0707C141.876 12.1792 142.028 12.3854 142.136 12.6893C142.201 12.8413 142.234 13.0149 142.234 13.2103C142.234 13.5793 142.136 13.9375 141.941 14.2848C141.767 14.6104 141.637 14.86 141.55 15.0337C141.529 15.0988 141.453 15.1639 141.322 15.2291C141.192 15.2725 141.138 15.2508 141.16 15.1639C141.181 15.0554 141.192 14.9469 141.192 14.8383C141.214 14.7298 141.225 14.6104 141.225 14.4802C141.225 14.1111 141.149 13.7747 140.997 13.4708C140.866 13.1669 140.617 13.0149 140.248 13.0149C139.901 13.0149 139.477 13.232 138.978 13.6661C138.479 14.1003 137.979 14.5996 137.48 15.1639C136.851 15.902 136.351 16.6075 135.982 17.2804C135.613 17.9316 135.309 18.572 135.071 19.2015C134.94 19.5488 134.81 19.8961 134.68 20.2434C134.55 20.569 134.452 20.8295 134.387 21.0249C134.105 21.0466 133.822 21.1117 133.54 21.2202C133.258 21.3505 133.063 21.4156 132.954 21.4156Z" fill="black" stroke="black"/>
<path d="M124.663 21.0249C124.315 21.0249 124.001 20.9597 123.718 20.8295C123.458 20.6776 123.328 20.3628 123.328 19.8852C123.328 19.1255 123.523 18.3657 123.914 17.606C124.304 16.8245 124.706 16.1408 125.119 15.5547C125.488 15.0554 125.9 14.5887 126.356 14.1546C126.833 13.6987 127.343 13.308 127.886 12.9824C128.233 12.7653 128.7 12.5374 129.286 12.2986C129.894 12.0381 130.404 11.9079 130.817 11.9079C131.164 11.9079 131.468 12.0055 131.728 12.2009C131.989 12.3746 132.119 12.7002 132.119 13.1777C132.119 13.9158 131.924 14.6755 131.533 15.457C131.164 16.2167 130.773 16.8897 130.361 17.4757C130.165 17.7362 129.97 17.9859 129.775 18.2246C129.579 18.4417 129.362 18.6696 129.123 18.9084C129.927 18.9084 130.665 18.6805 131.338 18.2246C132.011 17.7471 132.597 17.1718 133.096 16.4989L133.161 16.4338C133.226 16.4338 133.259 16.4989 133.259 16.6292C133.259 16.7811 133.215 16.9222 133.128 17.0525C132.694 17.6603 132.152 18.2029 131.5 18.6805C130.849 19.1363 130.111 19.3643 129.286 19.3643C129.199 19.3643 129.113 19.3643 129.026 19.3643C128.939 19.3643 128.852 19.3534 128.765 19.3317C127.55 20.4605 126.182 21.0249 124.663 21.0249ZM125.509 20.4713C125.813 20.4713 126.139 20.3628 126.486 20.1457C126.855 19.9287 127.137 19.7224 127.333 19.5271C127.702 19.1581 128.038 18.7673 128.342 18.3549C128.646 17.9207 128.928 17.4866 129.189 17.0525C129.493 16.5315 129.796 15.9128 130.1 15.1965C130.404 14.4802 130.556 13.8072 130.556 13.1777C130.556 12.6785 130.382 12.4288 130.035 12.4288C129.753 12.4288 129.406 12.5482 128.993 12.787C128.603 13.0258 128.309 13.2429 128.114 13.4382C127.376 14.198 126.757 15.0228 126.258 15.9128C125.976 16.4121 125.672 16.9982 125.346 17.6711C125.021 18.344 124.858 18.9627 124.858 19.5271C124.858 19.6139 124.858 19.7007 124.858 19.7876C124.88 19.8527 124.901 19.9287 124.923 20.0155C125.01 20.3194 125.205 20.4713 125.509 20.4713Z" fill="black" stroke="black"/>
<path d="M118.989 21.0574C118.772 21.0574 118.588 21.014 118.436 20.9272C118.284 20.8403 118.208 20.6775 118.208 20.4388C118.208 20.1349 118.284 19.7767 118.436 19.3643C118.609 18.9518 118.794 18.5394 118.989 18.127C119.185 17.7145 119.347 17.3781 119.478 17.1176C119.586 16.9222 119.727 16.6183 119.901 16.2059C120.096 15.7717 120.292 15.3267 120.487 14.8709C120.704 14.3933 120.878 13.9917 121.008 13.6661C121.16 13.3405 121.236 13.1777 121.236 13.1777C121.041 13.3948 120.78 13.6987 120.454 14.0894C120.151 14.4801 119.814 14.8926 119.445 15.3267C119.098 15.7392 118.772 16.1299 118.468 16.4989C118.186 16.8679 117.98 17.1393 117.85 17.3129C117.784 17.3998 117.73 17.4432 117.687 17.4432C117.643 17.4432 117.622 17.3889 117.622 17.2804C117.622 17.1067 117.676 16.9439 117.784 16.792C118.045 16.4664 118.36 16.0756 118.729 15.6198C119.098 15.1422 119.467 14.6647 119.836 14.1871C120.227 13.7095 120.563 13.2863 120.845 12.9172C120.672 12.9172 120.444 12.9281 120.161 12.9498C119.901 12.9715 119.662 13.0041 119.445 13.0475C119.228 13.0692 119.109 13.08 119.087 13.08C118.978 13.08 118.989 12.9932 119.119 12.8196C119.25 12.6459 119.423 12.4722 119.64 12.2986C119.857 12.1249 120.02 12.0381 120.129 12.0381C120.151 12.0381 120.324 12.0489 120.65 12.0707C120.975 12.0707 121.214 12.0707 121.366 12.0707C121.8 11.4846 122.224 10.8116 122.636 10.0519C123.07 9.29214 123.493 8.45641 123.906 7.54471C124.08 7.523 124.373 7.40361 124.785 7.18654C125.219 6.94776 125.556 6.70899 125.794 6.47021C125.903 6.36167 125.99 6.3074 126.055 6.3074C126.185 6.3074 126.185 6.39423 126.055 6.56789C125.903 6.74155 125.642 7.11057 125.273 7.67495C124.904 8.21763 124.492 8.8797 124.036 9.66116C123.58 10.4209 123.146 11.2241 122.734 12.0707H125.371C125.61 12.0707 125.729 12.1032 125.729 12.1683C125.729 12.2552 125.566 12.342 125.241 12.4288C124.872 12.5374 124.481 12.6025 124.069 12.6242C123.678 12.6459 123.309 12.6893 122.962 12.7544C122.636 12.8196 122.397 12.9606 122.245 13.1777C122.115 13.3297 121.931 13.6553 121.692 14.1545C121.453 14.6538 121.192 15.229 120.91 15.8803C120.65 16.5098 120.422 17.1501 120.227 17.8013C120.031 18.4309 119.912 18.9627 119.868 19.3968V19.5271C119.868 19.7007 119.923 19.8418 120.031 19.9504C120.14 20.0589 120.248 20.1132 120.357 20.1132C120.639 20.1132 120.997 19.9395 121.431 19.5922C121.887 19.2449 122.354 18.8324 122.831 18.3549C123.309 17.8556 123.721 17.3998 124.069 16.9873C124.221 16.8137 124.351 16.6509 124.459 16.4989C124.59 16.347 124.666 16.2493 124.687 16.2059C124.731 16.2927 124.752 16.3578 124.752 16.4012C124.752 16.5315 124.709 16.6726 124.622 16.8245C124.557 16.9765 124.481 17.1067 124.394 17.2153C123.982 17.7579 123.483 18.3332 122.896 18.941C122.31 19.5271 121.681 20.0263 121.008 20.4388C120.357 20.8512 119.684 21.0574 118.989 21.0574Z" fill="black" stroke="black"/>
<path d="M111.296 21.2202C110.493 21.2202 109.928 21.0683 109.603 20.7644C109.277 20.4605 109.114 20.0698 109.114 19.5922C109.114 18.9627 109.32 18.2681 109.733 17.5083C110.145 16.7269 110.536 16.0756 110.905 15.5547C111.274 15.0554 111.686 14.5887 112.142 14.1546C112.62 13.6987 113.13 13.308 113.673 12.9824C114.02 12.7653 114.487 12.5374 115.073 12.2986C115.681 12.0381 116.191 11.9079 116.603 11.9079C117.102 11.9079 117.45 12.0272 117.645 12.266C117.84 12.4831 117.938 12.7544 117.938 13.08C117.938 13.3405 117.895 13.6119 117.808 13.8941C117.721 14.1546 117.623 14.4042 117.515 14.643C117.45 14.7732 117.352 14.8709 117.222 14.936C117.092 14.9794 117.026 14.9577 117.026 14.8709C117.026 14.7624 117.037 14.6647 117.059 14.5778C117.081 14.491 117.092 14.3933 117.092 14.2848C117.092 13.8724 116.994 13.4708 116.798 13.08C116.625 12.6676 116.353 12.4614 115.984 12.4614C115.594 12.4614 115.17 12.6025 114.715 12.8847C114.259 13.1452 113.944 13.3731 113.77 13.5685C113.206 14.1546 112.652 14.8817 112.11 15.75C111.589 16.6183 111.209 17.4432 110.97 18.2246C110.818 18.6805 110.742 19.0712 110.742 19.3968C110.742 19.7659 110.84 20.0263 111.035 20.1783C111.231 20.3302 111.469 20.4062 111.752 20.4062C111.969 20.4062 112.197 20.3737 112.435 20.3085C112.696 20.2434 112.967 20.1674 113.249 20.0806C113.901 19.8635 114.552 19.5271 115.203 19.0712C115.876 18.5937 116.484 18.0944 117.026 17.5734C117.569 17.0308 117.982 16.564 118.264 16.1733C118.307 16.2167 118.329 16.2819 118.329 16.3687C118.329 16.4772 118.285 16.6075 118.199 16.7594C118.112 16.8897 118.047 16.9982 118.003 17.085C117.547 17.6928 116.95 18.3223 116.212 18.9735C115.474 19.603 114.671 20.1349 113.803 20.569C112.956 21.0032 112.121 21.2202 111.296 21.2202Z" fill="black" stroke="black"/>
<path d="M110.437 8.52153C110.133 8.52153 109.916 8.42385 109.785 8.22849C109.699 8.11995 109.655 7.97885 109.655 7.8052C109.655 7.45788 109.818 7.17569 110.144 6.95862C110.382 6.82837 110.599 6.76325 110.795 6.76325C111.12 6.76325 111.348 6.86094 111.479 7.0563C111.565 7.16484 111.609 7.30593 111.609 7.47959C111.609 7.8269 111.435 8.1091 111.088 8.32617C110.893 8.45641 110.675 8.52153 110.437 8.52153ZM104.771 21.0574C104.554 21.0574 104.37 21.014 104.218 20.9272C104.087 20.8403 104.022 20.6775 104.022 20.4388C104.022 20.1349 104.098 19.7767 104.25 19.3643C104.424 18.9518 104.608 18.5394 104.804 18.127C105.021 17.7145 105.184 17.3781 105.292 17.1176C105.444 16.8137 105.629 16.4229 105.846 15.9454C106.084 15.4461 106.301 14.9794 106.497 14.5453C106.714 14.0894 106.866 13.7747 106.953 13.601C106.649 13.9266 106.28 14.3391 105.846 14.8383C105.433 15.3159 105.042 15.7826 104.673 16.2384C104.304 16.6943 104.022 17.0524 103.827 17.3129C103.762 17.3998 103.707 17.4432 103.664 17.4432C103.621 17.4432 103.599 17.3889 103.599 17.2804C103.599 17.1067 103.653 16.9439 103.762 16.792C104.174 16.271 104.63 15.6849 105.129 15.0337C105.65 14.3825 106.117 13.7855 106.529 13.2428C106.942 12.6785 107.202 12.3094 107.311 12.1358C107.55 12.0924 107.897 12.0272 108.353 11.9404C108.83 11.8536 109.156 11.7342 109.33 11.5822C109.395 11.5171 109.46 11.4846 109.525 11.4846C109.568 11.4846 109.59 11.528 109.59 11.6148C109.612 11.6799 109.59 11.7559 109.525 11.8427C109.395 11.9947 109.167 12.3637 108.841 12.9498C108.516 13.5359 108.168 14.1871 107.799 14.9034C107.452 15.5981 107.126 16.2276 106.822 16.792C106.519 17.3781 106.258 17.9424 106.041 18.4851C105.824 19.0278 105.715 19.4185 105.715 19.6573C105.715 19.9612 105.867 20.1132 106.171 20.1132C106.453 20.1132 106.812 19.9395 107.246 19.5922C107.702 19.2449 108.157 18.8324 108.613 18.3549C109.069 17.8556 109.471 17.3998 109.818 16.9873C109.927 16.8571 110.057 16.7051 110.209 16.5315C110.382 16.3361 110.491 16.2167 110.534 16.1733C110.578 16.2167 110.599 16.2927 110.599 16.4012C110.578 16.5532 110.523 16.7051 110.437 16.8571C110.35 16.9873 110.263 17.1067 110.176 17.2153C109.72 17.7796 109.221 18.3657 108.678 18.9735C108.136 19.5596 107.539 20.0589 106.888 20.4713C106.236 20.8621 105.531 21.0574 104.771 21.0574Z" fill="black" stroke="black"/>
<path d="M94.0558 22.5552C93.8822 22.5552 93.7411 22.5227 93.6325 22.4575C93.524 22.4141 93.4806 22.3056 93.5023 22.1319C93.5023 22.0668 93.5348 21.9691 93.6 21.8389C93.6651 21.7086 93.7085 21.611 93.7302 21.5458C93.8387 21.2419 93.9364 20.938 94.0233 20.6341C94.1101 20.3085 94.1969 20.0046 94.2837 19.7224C94.5876 18.5285 94.8698 17.3455 95.1303 16.1733C95.3908 14.9794 95.597 13.7855 95.749 12.5916C95.8358 11.897 95.9443 10.9636 96.0746 9.79142C96.2048 8.59752 96.2699 7.44704 96.2699 6.33998C96.2699 5.90583 96.2591 5.50425 96.2374 5.13523C96.2157 4.7445 96.1614 4.39719 96.0746 4.09329C95.3582 4.09329 94.6419 4.09329 93.9256 4.09329C93.2092 4.07158 92.5037 4.06072 91.8091 4.06072C91.4835 4.06072 91.0277 4.08243 90.4416 4.12585C89.8772 4.16926 89.2911 4.26694 88.6833 4.41889C88.0972 4.57084 87.6088 4.82048 87.2181 5.16779C86.8273 5.51511 86.6537 5.98181 86.6971 6.5679C86.7188 6.74156 86.7839 6.98034 86.8925 7.28424C87.001 7.56643 87.077 7.74009 87.1204 7.80521L86.7622 8.0657C86.632 7.82692 86.4692 7.55558 86.2738 7.25168C86.0784 6.92607 85.9048 6.61132 85.7528 6.30742C85.6009 6.00352 85.514 5.77559 85.4923 5.62364C85.4706 5.40657 85.4815 5.12438 85.5249 4.77706C85.5683 4.42975 85.742 4.12585 86.0459 3.86536C86.3715 3.58317 86.8165 3.39866 87.3809 3.31183C87.967 3.225 88.5639 3.18159 89.1717 3.18159C89.7578 3.18159 90.3222 3.20329 90.8649 3.24671C91.4075 3.29012 91.8525 3.31183 92.1998 3.31183C92.1998 3.31183 92.4495 3.31183 92.9487 3.31183C93.448 3.31183 94.0775 3.31183 94.8373 3.31183C95.6187 3.29012 96.4436 3.27927 97.3119 3.27927C98.1802 3.27927 98.9725 3.27927 99.6888 3.27927L99.005 4.12585H96.7258C97.0514 4.73365 97.2576 5.58023 97.3444 6.66559C97.453 7.75094 97.5073 8.79289 97.5073 9.79142C97.5073 10.2039 97.5073 10.5946 97.5073 10.9636C97.5073 11.3326 97.4964 11.6582 97.4747 11.9404C97.4313 12.9607 97.2902 14.1871 97.0514 15.6198C96.8126 17.0525 96.5087 18.4092 96.1397 19.6899C97.0297 18.4309 98.1151 16.9331 99.3958 15.1965C100.698 13.4599 102.185 11.6582 103.857 9.79142C105.55 7.90289 107.417 6.11205 109.457 4.41889C109.869 4.07158 110.412 3.68085 111.085 3.24671C111.758 2.81256 112.474 2.44354 113.234 2.13964C113.994 1.81403 114.71 1.65123 115.383 1.65123C116.013 1.65123 116.447 1.75977 116.686 1.97684C116.946 2.19391 117.076 2.4761 117.076 2.82342C117.076 3.23585 116.946 3.6917 116.686 4.19097C116.447 4.69023 116.262 5.10267 116.132 5.42828C116.11 5.4934 116.013 5.53681 115.839 5.55852C115.665 5.58023 115.589 5.54767 115.611 5.46084C115.654 5.28718 115.698 5.08096 115.741 4.84218C115.806 4.5817 115.839 4.32121 115.839 4.06072C115.839 3.71341 115.774 3.39866 115.644 3.11646C115.513 2.83427 115.264 2.67147 114.895 2.62805C114.83 2.60635 114.764 2.59549 114.699 2.59549C114.634 2.59549 114.569 2.59549 114.504 2.59549C113.874 2.59549 113.191 2.81256 112.453 3.24671C111.736 3.65914 110.901 4.24524 109.945 5.00499C108.122 6.45937 106.385 8.0657 104.736 9.82398C103.108 11.5605 101.545 13.384 100.047 15.2942C99.2655 16.271 98.5058 17.2587 97.7677 18.2572C97.0297 19.2557 96.3459 20.2977 95.7164 21.383C95.673 21.4699 95.6296 21.5676 95.5862 21.6761C95.5645 21.8063 95.5319 21.904 95.4885 21.9691C95.4451 22.0125 95.3148 22.0777 95.0978 22.1645C94.8807 22.273 94.6636 22.3599 94.4465 22.425C94.2512 22.5118 94.1209 22.5552 94.0558 22.5552Z" fill="black" stroke="black"/>
<path d="M80.9552 24.574C80.3257 24.574 79.6745 24.3461 79.0016 23.8902C78.3503 23.4561 77.6666 22.7397 76.9502 21.7412C76.668 21.3288 76.3641 20.8621 76.0385 20.3411C75.7346 19.8201 75.4307 19.2883 75.1268 18.7456C74.7795 19.0929 74.4214 19.4294 74.0523 19.755C73.6833 20.0589 73.2383 20.3737 72.7173 20.6993C71.8273 21.2637 70.9699 21.6652 70.145 21.904C69.3202 22.1645 68.5387 22.2947 67.8007 22.2947C67.0409 22.2947 66.3463 22.1645 65.7168 21.904C65.109 21.6435 64.6097 21.2962 64.219 20.8621C63.6329 20.2109 63.3398 19.4511 63.3398 18.5828C63.3398 17.7796 63.5461 17.0416 63.9585 16.3687C64.3926 15.6958 64.8919 15.1097 65.4563 14.6104C66.3463 13.8289 67.3231 13.1669 68.3868 12.6242C69.4504 12.0598 70.4815 11.4846 71.48 10.8985L71.5126 10.8659C71.2738 10.1062 71.1544 9.37898 71.1544 8.68435C71.1544 8.48898 71.1653 8.29362 71.187 8.09825C71.2304 7.88118 71.263 7.67496 71.2847 7.4796C71.4583 6.69814 71.7948 6.13376 72.294 5.78644C72.815 5.41742 73.336 5.23291 73.857 5.23291C74.3562 5.23291 74.7795 5.37401 75.1268 5.6562C75.4959 5.93839 75.6804 6.32912 75.6804 6.82839C75.6804 7.28424 75.5067 7.75094 75.1594 8.2285C74.8121 8.70606 74.3996 9.15105 73.9221 9.56349C73.4662 9.97592 73.0321 10.3232 72.6197 10.6054C72.7933 11.0179 73.0321 11.5605 73.336 12.2335C73.6616 12.8847 73.9981 13.5576 74.3454 14.2522H78.7085C79.0124 14.2522 79.3163 14.2522 79.6202 14.2522C79.9458 14.2305 80.1846 14.1546 80.3366 14.0243C80.38 13.9809 80.4234 13.97 80.4668 13.9917C80.5102 14.0135 80.5102 14.0677 80.4668 14.1546L79.8807 15.0337C79.8156 15.1856 79.6853 15.2616 79.49 15.2616C79.4249 15.2616 79.3489 15.2616 79.262 15.2616C79.1752 15.2616 79.0667 15.2508 78.9364 15.2291C78.676 15.1856 78.3938 15.1531 78.0899 15.1314C77.8077 15.088 77.5146 15.0554 77.2107 15.0337C77.1239 15.4244 76.9828 15.8477 76.7874 16.3036C76.5921 16.7594 76.375 17.1718 76.1362 17.5409C76.5269 18.2138 76.9177 18.865 77.3084 19.4945C77.6991 20.1023 78.0573 20.6233 78.3829 21.0574C79.0341 21.8823 79.6419 22.4684 80.2063 22.8157C80.7707 23.163 81.2917 23.3367 81.7692 23.3367C82.5073 23.3367 83.1693 23.0545 83.7554 22.4901C84.3632 21.9474 84.9059 21.3613 85.3835 20.7318C85.4486 20.645 85.5137 20.6016 85.5788 20.6016C85.6874 20.6016 85.7416 20.6667 85.7416 20.7969C85.7416 20.9272 85.6982 21.0357 85.6114 21.1226C84.8516 22.1862 84.0919 23.0219 83.3321 23.6297C82.5724 24.2592 81.7801 24.574 80.9552 24.574ZM72.4894 10.2473C73.1189 9.81312 73.6833 9.32471 74.1826 8.78203C74.7035 8.21765 75.04 7.65326 75.192 7.08887C75.2137 7.02375 75.2245 6.95863 75.2245 6.89351C75.2245 6.82839 75.2245 6.77412 75.2245 6.7307C75.2245 6.36168 75.1051 6.09034 74.8663 5.91669C74.6276 5.72132 74.3562 5.62364 74.0523 5.62364C73.705 5.62364 73.3468 5.76474 72.9778 6.04693C72.6305 6.30741 72.3809 6.75241 72.2289 7.38192C72.2072 7.51216 72.1855 7.6424 72.1638 7.77265C72.1638 7.90289 72.1638 8.03313 72.1638 8.16338C72.1638 8.57581 72.1964 8.97739 72.2615 9.36812C72.3483 9.73715 72.4243 10.0302 72.4894 10.2473ZM69.0705 20.6993C70.2644 20.6993 71.3606 20.5039 72.3592 20.1132C72.815 19.9395 73.2492 19.679 73.6616 19.3317C74.0957 18.9844 74.4865 18.6045 74.8338 18.1921C74.6384 17.8231 74.3888 17.3455 74.0849 16.7594C73.781 16.1733 73.4554 15.5221 73.1081 14.8058C72.6739 14.8275 72.1747 14.9035 71.6103 15.0337C71.0459 15.1639 70.5575 15.381 70.145 15.6849C69.7543 15.9888 69.5807 16.423 69.6241 16.9873C69.6241 17.1393 69.6566 17.3347 69.7217 17.5734C69.8086 17.7905 69.8628 17.9316 69.8845 17.9967L69.6241 18.1921C69.4721 17.9099 69.2659 17.5626 69.0054 17.1501C68.7666 16.7377 68.6364 16.4338 68.6147 16.2384C68.593 16.0431 68.593 15.8043 68.6147 15.5221C68.6581 15.2399 68.81 14.9903 69.0705 14.7732C69.3527 14.5344 69.7435 14.3825 70.2427 14.3174C70.742 14.2305 71.263 14.1871 71.8056 14.1871C71.9793 14.1871 72.153 14.198 72.3266 14.2197C72.5003 14.2197 72.6631 14.2197 72.815 14.2197C72.6197 13.7421 72.4134 13.2537 72.1964 12.7544C72.001 12.2552 71.8056 11.7559 71.6103 11.2566L71.3172 11.452C70.4706 11.973 69.5807 12.5482 68.6472 13.1777C67.7355 13.8072 66.9649 14.5127 66.3354 15.2942C66.0532 15.6415 65.8036 16.0648 65.5865 16.564C65.3912 17.0633 65.2935 17.5626 65.2935 18.0618C65.2935 18.344 65.3369 18.6371 65.4237 18.941C65.5323 19.2232 65.6951 19.4837 65.9121 19.7224C66.2812 20.0698 66.737 20.3194 67.2797 20.4713C67.8441 20.6233 68.441 20.6993 69.0705 20.6993ZM75.778 16.9222C75.9734 16.6183 76.1579 16.2927 76.3316 15.9454C76.5052 15.5764 76.6463 15.2508 76.7549 14.9686C76.4076 14.9252 76.0602 14.8926 75.7129 14.8709C75.3656 14.8492 75.0074 14.8275 74.6384 14.8058C74.8772 15.2182 75.0834 15.6089 75.2571 15.978C75.4524 16.347 75.6261 16.6617 75.778 16.9222Z" fill="black" stroke="black"/>
<path d="M50.517 21.0249C49.8658 21.0249 49.4208 20.8729 49.182 20.569C48.9432 20.2434 48.8239 19.8527 48.8239 19.3968C48.8239 18.789 48.9541 18.1378 49.2146 17.4432C49.4968 16.7485 49.7247 16.2059 49.8984 15.8151C49.6162 16.119 49.3448 16.4121 49.0843 16.6943C48.8239 16.9765 48.6393 17.1827 48.5308 17.3129C48.4657 17.3998 48.4114 17.4432 48.368 17.4432C48.3246 17.4432 48.3029 17.3889 48.3029 17.2804C48.3029 17.1067 48.3572 16.9439 48.4657 16.792C48.7696 16.4012 49.1169 15.9888 49.5076 15.5547C49.8984 15.1205 50.2782 14.6647 50.6473 14.1871C51.0814 13.3839 51.559 12.4505 52.0799 11.3869C52.6226 10.3015 53.1761 9.19445 53.7405 8.06568C54.3266 6.9152 54.891 5.8624 55.4337 4.90729C55.9981 3.93047 56.4973 3.14901 56.9315 2.56292C57.3005 2.41097 57.6478 2.2156 57.9734 1.97682C58.3207 1.73804 58.6572 1.52097 58.9828 1.32561C59.3301 1.10854 59.6883 1 60.0573 1C60.2961 1 60.4698 1.06512 60.5783 1.19536C60.7085 1.32561 60.7954 1.47756 60.8388 1.65121C60.8605 1.71634 60.8713 1.83573 60.8713 2.00938C60.8713 2.50865 60.6977 3.11645 60.3504 3.83279C60.0248 4.54912 59.634 5.2546 59.1782 5.94923C58.744 6.62216 58.3642 7.17569 58.0385 7.60983C57.1703 8.82543 56.2803 9.9325 55.3686 10.931C54.4569 11.9079 53.632 12.7327 52.894 13.4056C52.1776 14.0569 51.6566 14.5344 51.331 14.8383C51.1791 15.1205 50.9946 15.5004 50.7775 15.9779C50.5821 16.4338 50.4085 16.9222 50.2565 17.4432C50.1046 17.9424 50.0286 18.4091 50.0286 18.8433C50.0286 19.2123 50.1154 19.5271 50.2891 19.7876C50.4627 20.0263 50.7558 20.1457 51.1682 20.1457C51.2334 20.1457 51.2985 20.1457 51.3636 20.1457C51.4287 20.1457 51.5047 20.1349 51.5915 20.1132C51.9605 20.048 52.3621 19.8418 52.7963 19.4945C53.2304 19.1472 53.6646 18.7456 54.0987 18.2898C54.5328 17.8339 54.9236 17.3998 55.2709 16.9873C55.4228 16.8137 55.5639 16.6509 55.6942 16.4989C55.8244 16.3253 55.9112 16.2059 55.9547 16.1407C56.1066 16.2927 56.0958 16.4881 55.9221 16.7268C55.7701 16.9439 55.6399 17.1284 55.5314 17.2804C55.3794 17.4757 55.1623 17.7471 54.8802 18.0944C54.598 18.42 54.2724 18.7782 53.9033 19.1689C53.4909 19.5813 52.9808 19.9938 52.373 20.4062C51.7652 20.8186 51.1465 21.0249 50.517 21.0249ZM51.8846 13.5359C52.5575 12.9715 53.4041 12.1683 54.4243 11.1264C55.4662 10.0627 56.4865 8.78202 57.485 7.28422C57.5935 7.11057 57.7672 6.81752 58.006 6.40508C58.2665 5.99265 58.527 5.52594 58.7874 5.00497C59.0696 4.46229 59.3084 3.94132 59.5038 3.44206C59.6991 2.92108 59.7968 2.47609 59.7968 2.10706C59.7968 1.75975 59.6991 1.58609 59.5038 1.58609C59.265 1.58609 58.9502 1.79231 58.5595 2.20475C58.1037 2.68231 57.5827 3.38779 56.9966 4.3212C56.4322 5.2329 55.8353 6.25313 55.2058 7.38191C54.5763 8.51068 53.9685 9.61774 53.3824 10.7031C52.818 11.7885 52.3187 12.7327 51.8846 13.5359Z" fill="black" stroke="black"/>
<path d="M42.1156 21.2202C41.2256 21.2202 40.6069 21.0466 40.2596 20.6993C39.9123 20.3519 39.7386 19.9287 39.7386 19.4294C39.7386 18.7999 39.9015 18.127 40.2271 17.4106C40.5744 16.6943 40.9 16.0865 41.2039 15.5872C41.5512 15.0663 42.0179 14.5236 42.604 13.9592C43.1901 13.3948 43.8304 12.9172 44.5251 12.5265C45.2197 12.1358 45.8926 11.9404 46.5438 11.9404C47.1082 11.9404 47.499 12.0815 47.716 12.3637C47.9331 12.6242 48.0416 12.939 48.0416 13.308C48.0416 13.9809 47.8354 14.5344 47.423 14.9686C47.0323 15.4027 46.5438 15.7609 45.9577 16.0431C45.3717 16.3036 44.8073 16.5206 44.2646 16.6943C43.939 16.7811 43.5591 16.8679 43.125 16.9548C42.6908 17.0416 42.2784 17.085 41.8877 17.085C41.7357 17.4757 41.6163 17.8556 41.5295 18.2246C41.4427 18.5937 41.3992 18.9301 41.3992 19.234C41.3992 19.6031 41.4861 19.907 41.6597 20.1457C41.8551 20.3845 42.1699 20.5039 42.604 20.5039C42.7777 20.5039 42.9839 20.4822 43.2226 20.4388C43.4614 20.3954 43.7219 20.3302 44.0041 20.2434C44.6553 20.0263 45.2957 19.679 45.9252 19.2015C46.5547 18.7239 47.1299 18.2138 47.6509 17.6711C48.1936 17.1067 48.606 16.64 48.8882 16.271C48.9533 16.3361 48.9859 16.4121 48.9859 16.4989C48.9859 16.6075 48.9099 16.7811 48.758 17.0199C48.3238 17.6277 47.7594 18.2572 47.0648 18.9084C46.3702 19.5596 45.5996 20.1132 44.753 20.569C43.9064 21.0032 43.0273 21.2202 42.1156 21.2202ZM42.1481 16.4338C42.4303 16.4555 42.7451 16.4555 43.0924 16.4338C43.4614 16.3904 43.8196 16.3144 44.1669 16.2059C45.0569 15.9454 45.6973 15.533 46.088 14.9686C46.5004 14.3825 46.7066 13.8615 46.7066 13.4057C46.7066 13.1452 46.6524 12.9281 46.5438 12.7544C46.4353 12.5808 46.2616 12.494 46.0229 12.494C45.3934 12.494 44.829 12.7327 44.3297 13.2103C43.8305 13.6661 43.3963 14.198 43.0273 14.8058C42.6583 15.4136 42.3652 15.9562 42.1481 16.4338Z" fill="black" stroke="black"/>
<path d="M25.8141 32.356C24.9892 32.356 24.1969 32.1606 23.4371 31.7699C22.6557 31.4009 22.0804 30.8256 21.7114 30.0442C21.5595 29.762 21.4618 29.4581 21.4184 29.1325C21.375 28.8286 21.3533 28.5247 21.3533 28.2208V27.8952C21.3533 27.7215 21.375 27.5587 21.4184 27.4068C21.4618 27.2548 21.5812 27.1788 21.7765 27.1788C21.82 27.1788 21.8417 27.2005 21.8417 27.244C21.8417 27.3742 21.8308 27.5044 21.8091 27.6347C21.7874 27.7649 21.7765 27.906 21.7765 28.058C21.7765 29.0565 22.1022 29.8163 22.7534 30.3372C23.3829 30.8582 24.1752 31.1187 25.1303 31.1187C25.521 31.1187 25.9226 31.0753 26.3351 30.9884C26.7475 30.9016 27.1274 30.7822 27.4747 30.6303C28.8639 30.0442 30.0687 29.1976 31.0889 28.0905C32.1309 26.9835 33.0317 25.7353 33.7915 24.3461C34.5729 22.9568 35.2567 21.535 35.8428 20.0806C36.4506 18.6045 37.015 17.2153 37.5359 15.9128C37.0801 16.6509 36.5808 17.3129 36.0382 17.899C35.4955 18.4634 34.8877 19.0278 34.2148 19.5922C33.8023 19.9395 33.3465 20.2651 32.8472 20.569C32.3696 20.8729 31.8487 21.0249 31.2843 21.0249C31.0672 21.0249 30.9153 20.9597 30.8284 20.8295C30.7416 20.6775 30.6982 20.5039 30.6982 20.3085V20.0806C30.8067 19.234 31.0781 18.3549 31.5122 17.4432C31.9681 16.5315 32.5107 15.674 33.1402 14.8709C33.7698 14.0677 34.4101 13.4165 35.0613 12.9172C35.7994 12.3528 36.6134 12.0707 37.5034 12.0707H41.2479C41.3564 12.0707 41.4107 12.1141 41.4107 12.2009C41.4107 12.3746 41.313 12.4614 41.1176 12.4614C40.8789 12.4614 40.6509 12.5591 40.4339 12.7544C40.2168 12.9498 40.054 13.1343 39.9454 13.308C39.7284 13.6553 39.4462 14.1871 39.0989 14.9034C38.7516 15.6198 38.3717 16.4446 37.9592 17.3781C37.5468 18.2898 37.1344 19.2232 36.7219 20.1783C36.3095 21.1117 35.9296 21.9908 35.5823 22.8157C35.0613 24.053 34.4644 25.2578 33.7915 26.4299C33.1402 27.6238 32.3588 28.6875 31.4471 29.6209C30.5571 30.576 29.4934 31.3249 28.2561 31.8676C27.5181 32.1932 26.7041 32.356 25.8141 32.356ZM32.6193 19.9178C32.8798 19.9178 33.2379 19.7333 33.6938 19.3643C34.1496 18.9735 34.6489 18.496 35.1916 17.9316C35.7343 17.3455 36.2444 16.7377 36.7219 16.1082C37.1995 15.457 37.5902 14.8709 37.8941 14.3499C38.2197 13.8072 38.3825 13.3948 38.3825 13.1126C38.3825 12.8738 38.3066 12.711 38.1546 12.6242C38.0244 12.5374 37.8507 12.4939 37.6336 12.4939C37.2863 12.4939 36.9173 12.6242 36.5266 12.8847C36.1358 13.1235 35.8211 13.3622 35.5823 13.601C35.3218 13.8398 35.0071 14.2197 34.638 14.7406C34.2907 15.2399 33.9326 15.7934 33.5635 16.4012C33.2162 17.009 32.9232 17.5951 32.6844 18.1595C32.4456 18.7239 32.3262 19.1798 32.3262 19.5271C32.3262 19.7876 32.4239 19.9178 32.6193 19.9178Z" fill="black" stroke="black"/>
<path d="M32.151 8.52153C31.8471 8.52153 31.63 8.42385 31.4998 8.22849C31.4129 8.11995 31.3695 7.97885 31.3695 7.8052C31.3695 7.45788 31.5323 7.17569 31.8579 6.95862C32.0967 6.82837 32.3138 6.76325 32.5091 6.76325C32.8347 6.76325 33.0627 6.86094 33.1929 7.0563C33.2797 7.16484 33.3232 7.30593 33.3232 7.47959C33.3232 7.8269 33.1495 8.1091 32.8022 8.32617C32.6068 8.45641 32.3898 8.52153 32.151 8.52153ZM26.4854 21.0574C26.2683 21.0574 26.0838 21.014 25.9319 20.9272C25.8016 20.8403 25.7365 20.6775 25.7365 20.4388C25.7365 20.1349 25.8125 19.7767 25.9644 19.3643C26.1381 18.9518 26.3226 18.5394 26.518 18.127C26.735 17.7145 26.8978 17.3781 27.0064 17.1176C27.1583 16.8137 27.3428 16.4229 27.5599 15.9454C27.7987 15.4461 28.0158 14.9794 28.2111 14.5453C28.4282 14.0894 28.5801 13.7747 28.667 13.601C28.3631 13.9266 27.9941 14.3391 27.5599 14.8383C27.1475 15.3159 26.7567 15.7826 26.3877 16.2384C26.0187 16.6943 25.7365 17.0524 25.5411 17.3129C25.476 17.3998 25.4218 17.4432 25.3783 17.4432C25.3349 17.4432 25.3132 17.3889 25.3132 17.2804C25.3132 17.1067 25.3675 16.9439 25.476 16.792C25.8885 16.271 26.3443 15.6849 26.8436 15.0337C27.3645 14.3825 27.8312 13.7855 28.2437 13.2428C28.6561 12.6785 28.9166 12.3094 29.0251 12.1358C29.2639 12.0924 29.6112 12.0272 30.0671 11.9404C30.5446 11.8536 30.8703 11.7342 31.0439 11.5822C31.109 11.5171 31.1742 11.4846 31.2393 11.4846C31.2827 11.4846 31.3044 11.528 31.3044 11.6148C31.3261 11.6799 31.3044 11.7559 31.2393 11.8427C31.109 11.9947 30.8811 12.3637 30.5555 12.9498C30.2299 13.5359 29.8826 14.1871 29.5136 14.9034C29.1662 15.5981 28.8406 16.2276 28.5367 16.792C28.2328 17.3781 27.9723 17.9424 27.7553 18.4851C27.5382 19.0278 27.4297 19.4185 27.4297 19.6573C27.4297 19.9612 27.5816 20.1132 27.8855 20.1132C28.1677 20.1132 28.5259 19.9395 28.96 19.5922C29.4159 19.2449 29.8717 18.8324 30.3276 18.3549C30.7834 17.8556 31.185 17.3998 31.5323 16.9873C31.6409 16.8571 31.7711 16.7051 31.923 16.5315C32.0967 16.3361 32.2052 16.2167 32.2487 16.1733C32.2921 16.2167 32.3138 16.2927 32.3138 16.4012C32.2921 16.5532 32.2378 16.7051 32.151 16.8571C32.0641 16.9873 31.9773 17.1067 31.8905 17.2153C31.4346 17.7796 30.9354 18.3657 30.3927 18.9735C29.85 19.5596 29.2531 20.0589 28.6019 20.4713C27.9506 20.8621 27.2452 21.0574 26.4854 21.0574Z" fill="black" stroke="black"/>
<path d="M19.5922 21.9366C19.5271 21.9366 19.4619 21.9149 19.3968 21.8714C19.3534 21.828 19.3426 21.7955 19.3643 21.7738C19.5162 21.5784 19.6356 21.3613 19.7224 21.1225C19.831 20.9055 19.9286 20.6775 20.0155 20.4388C19.7333 18.9193 19.3534 17.3346 18.8758 15.6849C18.42 14.0352 17.9207 12.3854 17.3781 10.7357C16.8571 9.06421 16.3578 7.47959 15.8803 5.98179C15.7283 6.09033 15.5655 6.35082 15.3918 6.76325C15.2399 7.17569 15.1314 7.47959 15.0662 7.67495C14.784 8.413 14.4476 9.28128 14.0569 10.2798C13.6878 11.2566 13.2645 12.2769 12.787 13.3405C12.3311 14.3825 11.8102 15.4136 11.2241 16.4338C10.6597 17.4323 10.0302 18.344 9.33555 19.1689C9.00994 19.5813 8.56495 19.9504 8.00056 20.276C7.43617 20.5799 6.85008 20.8186 6.24228 20.9923C5.63448 21.1877 5.08095 21.2853 4.58168 21.2853C3.90876 21.2853 3.25754 21.1008 2.62804 20.7318C2.02024 20.3411 1.56439 19.755 1.26049 18.9735C1.17366 18.6913 1.10854 18.3983 1.06512 18.0944C1.02171 17.7688 1 17.454 1 17.1501C1 16.8462 1.05427 16.6943 1.1628 16.6943C1.27134 16.6943 1.32561 16.7811 1.32561 16.9548C1.32561 17.975 1.6078 18.8216 2.17219 19.4945C2.73657 20.1674 3.40949 20.5039 4.19095 20.5039C4.9507 20.5039 5.71045 20.3194 6.4702 19.9504C7.22995 19.5813 7.91373 19.0712 8.52153 18.42C9.49835 17.3346 10.3232 16.1842 10.9961 14.9686C11.6691 13.753 12.266 12.4939 12.787 11.1915C13.308 9.88908 13.8398 8.58665 14.3825 7.28422C14.7081 6.45935 15.1639 5.74302 15.75 5.13521C16.3361 4.52741 17.0199 4.14754 17.8013 3.99559H16.0105C15.2508 3.99559 14.4476 4.02815 13.601 4.09327C12.7544 4.15839 11.9838 4.29949 11.2892 4.51656C10.5946 4.73363 10.0953 5.05924 9.7914 5.49338C9.61774 5.75387 9.53091 6.06862 9.53091 6.43764C9.53091 6.82837 9.6286 7.19739 9.82396 7.54471C10.0193 7.89202 10.269 8.14166 10.5729 8.29361C10.6163 8.33702 10.638 8.35873 10.638 8.35873C10.638 8.42385 10.5837 8.48897 10.4752 8.55409C10.3883 8.59751 10.2907 8.60836 10.1821 8.58665C10.0085 8.47812 9.7914 8.30446 9.53091 8.06568C9.27043 7.8052 9.03165 7.53386 8.81458 7.25166C8.61921 6.96947 8.48897 6.73069 8.42385 6.53533C8.33702 6.27484 8.29361 6.01435 8.29361 5.75387C8.29361 5.2329 8.47812 4.80961 8.84714 4.484C9.23787 4.15839 9.73713 3.90876 10.3449 3.7351C10.9527 3.56145 11.6039 3.44206 12.2986 3.37693C13.0149 3.29011 13.6987 3.24669 14.3499 3.24669C15.0011 3.22498 15.5655 3.21413 16.0431 3.21413H19.9829C20.0914 3.19242 20.0914 3.2684 19.9829 3.44206C19.8961 3.61571 19.7767 3.78937 19.6247 3.96303C19.4945 4.11498 19.386 4.19095 19.2991 4.19095C19.0821 4.16925 18.7456 4.21266 18.2898 4.3212C17.8556 4.40802 17.5517 4.51656 17.3781 4.6468C17.4432 5.47168 17.5951 6.43764 17.8339 7.54471C18.0944 8.65177 18.3983 9.82396 18.7456 11.0613C19.0929 12.2769 19.4728 13.5033 19.8852 14.7406C20.3194 15.9562 20.7427 17.0959 21.1551 18.1595C21.5024 17.3346 21.8931 16.3253 22.3273 15.1314C22.7614 13.9375 23.2173 12.6676 23.6948 11.3218C24.1941 9.97591 24.7042 8.67348 25.2252 7.41447C25.7679 6.13374 26.2997 4.99412 26.8207 3.99559C27.3633 2.99706 27.8952 2.25902 28.4161 1.78146C28.6766 1.54268 28.9914 1.35817 29.3604 1.22793C29.7294 1.07598 30.0767 1 30.4024 1C30.7063 1 30.9667 1.07598 31.1838 1.22793C31.4009 1.35817 31.4986 1.57524 31.4769 1.87914L31.4443 3.05133C31.4443 3.07303 31.39 3.09474 31.2815 3.11645C31.173 3.13815 31.1295 3.13815 31.1512 3.11645C31.173 2.83425 31.0644 2.63889 30.8256 2.53035C30.5869 2.40011 30.3915 2.33499 30.2395 2.33499C29.7837 2.31328 29.2953 2.59548 28.7743 3.18157C28.275 3.76766 27.7541 4.53827 27.2114 5.49338C26.6687 6.4485 26.1369 7.5013 25.6159 8.65177C25.0949 9.78055 24.5957 10.9202 24.1181 12.0707C23.6623 13.1994 23.2498 14.2414 22.8808 15.1965C22.5118 16.1516 22.2079 16.9005 21.9691 17.4432C21.752 17.899 21.6435 18.344 21.6435 18.7782C21.6435 18.8433 21.6435 18.9084 21.6435 18.9735C21.6435 19.0387 21.6544 19.1038 21.6761 19.1689C21.6761 19.2557 21.6869 19.3534 21.7086 19.4619C21.752 19.5705 21.7846 19.679 21.8063 19.7875C21.8063 19.8093 21.8063 19.831 21.8063 19.8527C21.828 19.8744 21.8389 19.9069 21.8389 19.9504C21.8389 20.124 21.752 20.276 21.5784 20.4062C21.3613 20.5582 21.1225 20.6884 20.8621 20.7969C20.7101 20.8621 20.493 21.0249 20.2108 21.2853C19.9504 21.5675 19.7875 21.7629 19.7224 21.8714C19.679 21.9149 19.6356 21.9366 19.5922 21.9366Z" fill="black" stroke="black"/>
</svg>
